<svg width="16" height="19" viewBox="0 0 16 19" fill="none" xmlns="http://www.w3.org/2000/svg">
<path d="M5.75 6.5C5.75 5.25736 6.75736 4.25 8 4.25C9.24264 4.25 10.25 5.25736 10.25 6.5C10.25 7.74264 9.24264 8.75 8 8.75C6.75736 8.75 5.75 7.74264 5.75 6.5Z" fill="#424242"/>
<path fill-rule="evenodd" clip-rule="evenodd" d="M7.83803 0C4.63566 0 1.96864 2.45623 1.70556 5.64777C1.56414 7.3635 2.09411 9.06714 3.18386 10.3999L6.77866 14.7962C7.4099 15.5682 8.59011 15.5682 9.22135 14.7962L12.8161 10.3999C13.9059 9.06714 14.4359 7.3635 14.2944 5.64777C14.0314 2.45623 11.3643 0 8.16198 0H7.83803ZM8 2.75C5.92893 2.75 4.25 4.42893 4.25 6.5C4.25 8.57107 5.92893 10.25 8 10.25C10.0711 10.25 11.75 8.57107 11.75 6.5C11.75 4.42893 10.0711 2.75 8 2.75Z" fill="#424242"/>
<path d="M3.33541 12.8292C3.70589 13.0144 3.85606 13.4649 3.67082 13.8354L2.21353 16.75H13.7865L12.3292 13.8354C12.1439 13.4649 12.2941 13.0144 12.6646 12.8292C13.0351 12.6439 13.4856 12.7941 13.6708 13.1646L15.6708 17.1646C15.7871 17.3971 15.7746 17.6732 15.638 17.8943C15.5013 18.1154 15.2599 18.25 15 18.25H1C0.740068 18.25 0.498668 18.1154 0.362013 17.8943C0.225358 17.6732 0.212935 17.3971 0.32918 17.1646L2.32918 13.1646C2.51442 12.7941 2.96493 12.6439 3.33541 12.8292Z" fill="#424242"/>
</svg>
