<svg width="24" height="25" viewBox="0 0 24 25" fill="none" xmlns="http://www.w3.org/2000/svg">
<path fill-rule="evenodd" clip-rule="evenodd" d="M12.75 2.5C12.75 2.08579 12.4142 1.75 12 1.75C11.5858 1.75 11.25 2.08579 11.25 2.5V4.28363C7.29215 4.64029 4.14029 7.79215 3.78363 11.75H2C1.58579 11.75 1.25 12.0858 1.25 12.5C1.25 12.9142 1.58579 13.25 2 13.25H3.78363C4.14029 17.2079 7.29215 20.3597 11.25 20.7164V22.5C11.25 22.9142 11.5858 23.25 12 23.25C12.4142 23.25 12.75 22.9142 12.75 22.5V20.7164C16.7079 20.3597 19.8597 17.2079 20.2164 13.25H22C22.4142 13.25 22.75 12.9142 22.75 12.5C22.75 12.0858 22.4142 11.75 22 11.75H20.2164C19.8597 7.79215 16.7079 4.64029 12.75 4.28363V2.5ZM8.25 12.5C8.25 10.4289 9.92893 8.75 12 8.75C14.0711 8.75 15.75 10.4289 15.75 12.5C15.75 14.5711 14.0711 16.25 12 16.25C9.92893 16.25 8.25 14.5711 8.25 12.5Z" fill="#1E6D80"/>
</svg>
