<svg width="36" height="36" viewBox="0 0 36 36" fill="none" xmlns="http://www.w3.org/2000/svg">
<rect width="36" height="36" rx="3.6" fill="#C9F4FF"/>
<g clip-path="url(#clip0_18_147)">
<mask id="mask0_18_147" style="mask-type:luminance" maskUnits="userSpaceOnUse" x="3" y="3" width="30" height="30">
<path d="M33 3H3V33H33V3Z" fill="white"/>
</mask>
<g mask="url(#mask0_18_147)">
<path d="M17.9045 9.70186L9.98618 13.4351L10.3192 22.1299L17.8691 17.9477L17.9045 9.70186Z" fill="#9F6B41"/>
<path d="M25.3714 13.656L25.0978 22.3566L17.5037 27.2692L17.8691 17.9477L17.907 9.6989L25.3714 13.656Z" fill="#814D27"/>
<path d="M17.4625 18.1801L17.4531 27.4975L10.3219 22.1826L9.98837 13.4383L11.5009 14.383L17.4625 18.1801Z" fill="#8F5F37"/>
<path d="M17.4625 18.1802L17.4531 27.4975L25.0978 22.4321L25.3499 13.6651L17.4625 18.1802Z" fill="#A87649"/>
<path d="M15.7608 23.1765C15.7472 23.1672 15.7363 23.1822 15.7365 23.2102V23.2351C15.4969 23.0867 15.3065 23.2548 15.2932 23.6262L15.7365 23.9446V24.4542V25.0978C15.7338 25.1553 15.7411 25.2204 15.7572 25.2819C15.7762 25.3541 15.8065 25.4169 15.8405 25.4538C15.8747 25.4908 15.9103 25.4992 15.9379 25.476C15.9623 25.4555 15.9789 25.4116 15.9842 25.3537C15.9896 25.2957 15.9833 25.2271 15.9668 25.1624C15.9595 25.1333 15.9441 25.1151 15.9325 25.122C15.9209 25.1288 15.9175 25.158 15.9251 25.1869C15.9348 25.2247 15.9387 25.2674 15.9356 25.3012C15.9325 25.335 15.9222 25.3623 15.9079 25.3743C15.8919 25.3878 15.8693 25.3827 15.8492 25.3608C15.8291 25.339 15.8099 25.299 15.7984 25.2557C15.7884 25.2176 15.7838 25.1749 15.7857 25.1396C15.7857 25.1378 15.786 25.1361 15.786 25.1342V24.4898V23.9802L16.2381 24.3049C16.2246 23.909 16.0291 23.4614 15.786 23.2698V23.2458C15.7862 23.2175 15.7749 23.1862 15.7609 23.1766L15.7608 23.1765ZM16.4032 23.6895C16.403 23.8532 16.4067 24.0198 16.4142 24.1882C16.421 24.3402 16.4316 24.4986 16.4651 24.649C16.5028 24.8177 16.5693 24.9639 16.6406 25.0385C16.6401 25.0388 16.6398 25.0402 16.6398 25.042V25.9425L16.4737 25.8231C16.4727 25.8225 16.4719 25.8231 16.4719 25.8245V25.9324C16.4719 25.9339 16.4727 25.9356 16.4737 25.9363L16.8614 26.2148C16.8623 26.2154 16.8631 26.2148 16.8631 26.2134V26.1055C16.8631 26.1041 16.8623 26.1023 16.8614 26.1016L16.6953 25.9823V25.0818C16.6953 25.08 16.6949 25.0781 16.6944 25.0772C16.7657 25.105 16.8322 25.0543 16.8699 24.9397C16.9035 24.8376 16.914 24.6944 16.9208 24.552C16.9283 24.3945 16.932 24.2332 16.9318 24.0692L16.6675 23.8794L16.4032 23.6895ZM14.5802 22.4465L14.4416 22.7443C14.4412 22.7453 14.4424 22.7478 14.4434 22.7485L14.5403 22.8181V24.3304L14.4132 24.2391C14.4121 24.2383 14.4112 24.239 14.4112 24.2407V24.4051C14.4112 24.4069 14.4121 24.4089 14.4132 24.4097L15.2144 24.9853C15.2155 24.9861 15.2165 24.9853 15.2165 24.9836V24.8192C15.2165 24.8175 15.2155 24.8154 15.2144 24.8146L15.0873 24.7233V23.211L15.1844 23.2807C15.1854 23.2814 15.1862 23.2807 15.1862 23.2791C15.1862 23.2791 15.0475 22.7805 15.0475 22.7821L14.9088 23.0799C14.9084 23.0809 14.9096 23.0834 14.9106 23.0841L15.0076 23.1537V24.666L14.6201 24.3877V22.8754L14.7172 22.9452C14.7182 22.9459 14.7189 22.9451 14.7189 22.9435C14.7189 22.9435 14.5802 22.4449 14.5802 22.4465Z" fill="#3F3F3F"/>
<path d="M17.9045 9.70178L25.3714 13.656L29.315 11.0754L21.8493 7.3828L17.9045 9.70178Z" fill="#F2B276"/>
<path d="M29.2527 11.047L29.3151 11.0754L29.3091 11.0811L25.3741 13.6594L25.321 13.6347L29.2527 11.047Z" fill="#DA9451"/>
<path d="M17.4625 18.1801L21.9421 21.5066L29.8846 17.0177L25.3714 13.656L17.4625 18.1801Z" fill="#EFAD71"/>
<path d="M17.4625 18.1801V18.2907L21.9444 21.6427L21.9421 21.5066L17.4625 18.1801Z" fill="#E49A53"/>
<path d="M21.9445 21.6427L29.8752 17.1907L29.8847 17.0206L21.9421 21.5095L21.9445 21.6427Z" fill="#E49A53"/>
<path d="M9.98859 13.4322L17.9045 9.70179L14.2311 6.84665L6.08298 10.5971L9.98859 13.4322Z" fill="#E9A96E"/>
<path d="M6.08304 10.7299L9.91084 13.4523L9.98859 13.435L6.08304 10.597V10.7299Z" fill="#E49A53"/>
<path d="M17.4625 18.1801L9.98858 13.4321L6.1203 16.5761L13.6134 21.3546L17.4625 18.1801Z" fill="#EFAD71"/>
<path d="M13.6134 21.4793V21.3546L6.1203 16.5761V16.6754L13.6134 21.4793Z" fill="#E49A53"/>
<path d="M13.6134 21.3546V21.4793L17.4625 18.2907V18.1801L13.6134 21.3546Z" fill="#E49A53"/>
</g>
</g>
<defs>
<clipPath id="clip0_18_147">
<rect width="30" height="30" fill="white" transform="translate(3 3)"/>
</clipPath>
</defs>
</svg>
